<svg width="255" height="88" viewBox="0 0 255 88" fill="none" xmlns="http://www.w3.org/2000/svg">
<g clip-path="url(#clip0_2499_3756)">
<path d="M44.0382 5.77133e-09C32.3587 6.12475e-06 21.1576 4.63558 12.8989 12.887C4.64015 21.1384 0.000297642 32.3297 4.14403e-09 43.9991C-7.93302e-05 49.7774 1.13894 55.4991 3.35203 60.8375C5.56512 66.1759 8.80894 71.0265 12.8983 75.1124C16.9876 79.1983 21.8424 82.4394 27.1853 84.6506C32.5283 86.8619 38.2549 88 44.0382 88C49.8214 88 55.548 86.8619 60.891 84.6506C66.234 82.4394 71.0887 79.1983 75.1781 75.1124C79.2674 71.0265 82.5112 66.1759 84.7243 60.8375C86.9374 55.4991 88.0764 49.7774 88.0763 43.9991C88.0761 43.2184 88.055 42.4377 88.0132 41.658C88.0538 41.462 88.0763 41.2599 88.0763 41.0513V2.94777C88.0763 1.31401 86.7685 5.77133e-09 85.1424 5.77133e-09H46.9738C46.7669 5.77133e-09 46.5645 0.0198972 46.37 0.0616846C45.5934 0.0205551 44.8158 -1.25786e-05 44.0382 5.77133e-09Z" fill="white"/>
<path d="M66.669 44.0002C66.669 48.5697 34.8013 67.0553 30.8626 64.7706C26.9239 62.4858 26.9239 25.5146 30.8626 23.2299C34.8013 20.9451 66.669 39.4307 66.669 44.0002Z" fill="#008BCA"/>
<path d="M103.149 10.8066V43.1925H98.6265V10.8066H103.149Z" fill="white"/>
<path d="M108.1 43.1924V20.0724H112.623V43.1924H108.1ZM122.067 43.1924V29.1823C122.067 27.5489 121.646 26.2867 120.803 25.3958C119.976 24.5048 118.793 24.0594 117.256 24.0594C115.778 24.0594 114.633 24.4529 113.82 25.2399C113.022 26.0269 112.623 27.1331 112.623 28.5586L112.157 24.1039C112.867 22.7081 113.791 21.6315 114.929 20.8742C116.081 20.1169 117.352 19.7383 118.742 19.7383C121.239 19.7383 123.168 20.5624 124.528 22.2107C125.902 23.8441 126.589 26.1605 126.589 29.16V43.1924H122.067Z" fill="white"/>
<path d="M131.541 43.1925V16.9319C131.541 14.8976 132.006 13.3681 132.938 12.3435C133.869 11.3189 135.317 10.8066 137.283 10.8066H140.608V15.1277H137.371C136.913 15.1277 136.581 15.3059 136.374 15.6623C136.167 16.0038 136.063 16.4122 136.063 16.8873V43.1925H131.541ZM129.102 23.9481V20.0725H140.608V23.9481H129.102Z" fill="white"/>
<path d="M147.2 10.8066V37.2231C147.2 37.7726 147.318 38.2032 147.555 38.515C147.806 38.8269 148.153 38.9828 148.597 38.9828H150.725V43.3038H148.065C146.365 43.3038 145.042 42.7693 144.097 41.7002C143.151 40.631 142.678 39.1238 142.678 37.1786V10.8066H147.2Z" fill="white"/>
<path d="M166.894 43.1923V20.0723H171.394V43.1923H166.894ZM157.539 20.0723V34.1269C157.539 35.7455 157.945 37.0002 158.758 37.8912C159.586 38.7673 160.746 39.2053 162.239 39.2053C163.731 39.2053 164.877 38.8118 165.675 38.0248C166.488 37.223 166.894 36.1019 166.894 34.6615L167.204 39.4948C166.791 40.5343 166.066 41.4698 165.032 42.3013C163.997 43.118 162.645 43.5264 160.975 43.5264C158.433 43.5264 156.467 42.7097 155.078 41.0763C153.703 39.428 153.016 37.1116 153.016 34.1269V20.0723H157.539Z" fill="white"/>
<path d="M185.103 43.5265C181.896 43.5265 179.413 42.6281 177.654 40.8314C175.895 39.0347 175.016 36.4806 175.016 33.1693V30.5633C175.016 27.1183 175.858 24.4529 177.543 22.567C179.243 20.6812 181.63 19.7383 184.704 19.7383C187.6 19.7383 189.839 20.8074 191.421 22.9457C193.017 25.084 193.815 28.0835 193.815 31.9442V33.4588H178.297V29.806H189.514C189.381 27.935 188.894 26.4723 188.051 25.4181C187.223 24.3638 186.108 23.8366 184.704 23.8366C183.004 23.8366 181.681 24.4009 180.735 25.5294C179.789 26.658 179.317 28.2542 179.317 30.3183V33.2584C179.317 35.1739 179.819 36.644 180.824 37.6686C181.844 38.6931 183.27 39.2054 185.103 39.2054C186.019 39.2054 186.928 39.0198 187.829 38.6486C188.731 38.2774 189.536 37.7576 190.246 37.0894L193.217 40.0741C192.079 41.1729 190.8 42.0268 189.381 42.6356C187.962 43.2295 186.536 43.5265 185.103 43.5265Z" fill="white"/>
<path d="M108.327 77.1934C106.751 77.1934 105.265 77.044 103.867 76.7452C102.484 76.4465 101.183 75.9983 99.9642 75.4008C98.7599 74.8033 97.63 74.0564 96.5743 73.1601L99.4067 69.6646C100.641 70.7401 102.001 71.5468 103.488 72.0846C104.975 72.6223 106.588 72.8912 108.327 72.8912C110.677 72.8912 112.498 72.4506 113.791 71.5692C115.085 70.6879 115.732 69.4555 115.732 67.872V67.8497C115.732 66.6098 115.405 65.6613 114.75 65.004C114.096 64.3467 113.234 63.8612 112.163 63.5475C111.108 63.2189 109.948 62.95 108.684 62.7409C107.465 62.5317 106.231 62.2853 104.982 62.0014C103.748 61.7176 102.611 61.277 101.57 60.6794C100.529 60.067 99.6892 59.1931 99.0499 58.0578C98.4254 56.9225 98.1132 55.4063 98.1132 53.5092V53.4868C98.1132 50.4544 99.1168 48.1091 101.124 46.451C103.131 44.7779 105.963 43.9414 109.621 43.9414C111.36 43.9414 113.063 44.2252 114.728 44.7929C116.393 45.3456 118.014 46.197 119.59 47.3473L117.003 50.9772C115.769 50.051 114.535 49.3639 113.301 48.9158C112.082 48.4676 110.855 48.2435 109.621 48.2435C107.406 48.2435 105.681 48.6917 104.447 49.588C103.228 50.4693 102.618 51.7241 102.618 53.3524V53.3747C102.618 54.5997 102.975 55.5333 103.689 56.1756C104.402 56.8179 105.332 57.2959 106.476 57.6096C107.636 57.9084 108.878 58.1922 110.201 58.4611C111.39 58.7001 112.58 58.9914 113.769 59.335C114.958 59.6636 116.036 60.1491 117.003 60.7914C117.984 61.4188 118.765 62.2853 119.344 63.3907C119.939 64.4961 120.237 65.9376 120.237 67.7152V67.7601C120.237 70.7626 119.196 73.0855 117.114 74.7287C115.033 76.3719 112.104 77.1934 108.327 77.1934Z" fill="white"/>
<path d="M131.484 77.1934C128.451 77.1934 126.102 76.3121 124.437 74.5494C122.772 72.7718 121.939 70.2771 121.939 67.0654V63.2787C121.939 60.0969 122.772 57.6321 124.437 55.8843C126.102 54.1366 128.451 53.2627 131.484 53.2627C134.517 53.2627 136.866 54.1366 138.532 55.8843C140.197 57.6321 141.029 60.0969 141.029 63.2787V67.1327C141.029 70.3294 140.197 72.8091 138.532 74.5718C136.866 76.3196 134.517 77.1934 131.484 77.1934ZM131.484 72.8465C133.075 72.8465 134.302 72.346 135.164 71.3452C136.041 70.3443 136.48 68.9402 136.48 67.1327V63.2787C136.48 61.4712 136.041 60.0744 135.164 59.0885C134.302 58.1026 133.075 57.6097 131.484 57.6097C129.908 57.6097 128.682 58.1026 127.804 59.0885C126.927 60.0744 126.489 61.4712 126.489 63.2787V67.1327C126.489 68.9402 126.927 70.3443 127.804 71.3452C128.682 72.346 129.908 72.8465 131.484 72.8465Z" fill="white"/>
<path d="M148.397 44.2773V70.8521C148.397 71.4048 148.515 71.838 148.753 72.1517C149.006 72.4654 149.356 72.6223 149.802 72.6223H151.943V76.9692H149.266C147.557 76.9692 146.226 76.4314 145.274 75.3559C144.323 74.2804 143.847 72.7642 143.847 70.8073V44.2773H148.397Z" fill="white"/>
<path d="M167.16 76.8571V53.5986H171.687V76.8571H167.16ZM157.749 53.5986V67.7375C157.749 69.3657 158.157 70.628 158.975 71.5243C159.808 72.4056 160.975 72.8463 162.477 72.8463C163.978 72.8463 165.13 72.4504 165.933 71.6587C166.751 70.8521 167.16 69.7242 167.16 68.2752L167.472 73.1376C167.056 74.1832 166.327 75.1243 165.287 75.9609C164.246 76.7824 162.885 77.1932 161.205 77.1932C158.648 77.1932 156.671 76.3717 155.273 74.7285C153.89 73.0704 153.199 70.74 153.199 67.7375V53.5986H157.749Z" fill="white"/>
<path d="M180.972 76.9695C179.069 76.9695 177.687 76.4392 176.824 75.3786C175.977 74.318 175.553 72.7943 175.553 70.8076V46.832H180.103V70.8524C180.103 71.4051 180.214 71.8383 180.437 72.152C180.66 72.4657 180.987 72.6225 181.418 72.6225H183.604V76.9695H180.972ZM173.167 57.7218V53.599H183.604V57.7218H173.167Z" fill="white"/>
<path d="M186.199 48.8484V44.2773H190.748V48.8484H186.199ZM186.199 76.8572V53.5987H190.748V76.8572H186.199Z" fill="white"/>
<path d="M202.888 77.1934C199.855 77.1934 197.506 76.3121 195.841 74.5494C194.175 72.7718 193.343 70.2771 193.343 67.0654V63.2787C193.343 60.0969 194.175 57.6321 195.841 55.8843C197.506 54.1366 199.855 53.2627 202.888 53.2627C205.921 53.2627 208.27 54.1366 209.935 55.8843C211.6 57.6321 212.433 60.0969 212.433 63.2787V67.1327C212.433 70.3294 211.6 72.8091 209.935 74.5718C208.27 76.3196 205.921 77.1934 202.888 77.1934ZM202.888 72.8465C204.479 72.8465 205.705 72.346 206.568 71.3452C207.445 70.3443 207.883 68.9402 207.883 67.1327V63.2787C207.883 61.4712 207.445 60.0744 206.568 59.0885C205.705 58.1026 204.479 57.6097 202.888 57.6097C201.312 57.6097 200.085 58.1026 199.208 59.0885C198.331 60.0744 197.892 61.4712 197.892 63.2787V67.1327C197.892 68.9402 198.331 70.3443 199.208 71.3452C200.085 72.346 201.312 72.8465 202.888 72.8465Z" fill="white"/>
<path d="M215.251 76.8573V53.5988H219.8V76.8573H215.251ZM229.301 76.8573V62.7633C229.301 61.1201 228.877 59.8504 228.03 58.9541C227.197 58.0578 226.008 57.6097 224.461 57.6097C222.974 57.6097 221.822 58.0055 221.004 58.7972C220.202 59.589 219.8 60.7018 219.8 62.1359L219.332 57.6545C220.046 56.2503 220.975 55.1673 222.12 54.4055C223.279 53.6436 224.558 53.2627 225.955 53.2627C228.468 53.2627 230.408 54.0918 231.776 55.7499C233.159 57.3931 233.85 59.7234 233.85 62.7409V76.8573H229.301Z" fill="white"/>
<path d="M245.299 77.1934C243.247 77.1934 241.381 76.8947 239.701 76.2971C238.036 75.6847 236.542 74.7735 235.218 73.5635L237.917 70.2248C239.181 71.1809 240.422 71.8979 241.641 72.3759C242.875 72.8539 244.094 73.0929 245.299 73.0929C247.098 73.0929 248.443 72.8166 249.335 72.2639C250.242 71.6962 250.696 70.8522 250.696 69.7319C250.696 68.8655 250.391 68.253 249.781 67.8945C249.187 67.536 248.399 67.3044 247.417 67.1999C246.451 67.0804 245.41 66.9833 244.295 66.9086C243.358 66.8339 242.429 66.7219 241.507 66.5725C240.586 66.4082 239.746 66.1244 238.987 65.721C238.229 65.3028 237.619 64.6903 237.159 63.8836C236.713 63.077 236.49 61.994 236.49 60.6346C236.49 58.1699 237.24 56.325 238.742 55.1001C240.244 53.8752 242.481 53.2627 245.455 53.2627C247.269 53.2627 248.956 53.5092 250.517 54.0021C252.078 54.4951 253.543 55.2495 254.911 56.2653L252.168 59.6039C251.008 58.857 249.863 58.2968 248.733 57.9234C247.618 57.5499 246.525 57.3632 245.455 57.3632C243.909 57.3632 242.749 57.6321 241.976 58.1698C241.203 58.6927 240.816 59.4844 240.816 60.545C240.816 61.2471 241.084 61.755 241.619 62.0687C242.154 62.3674 242.86 62.5616 243.738 62.6513C244.615 62.7409 245.559 62.823 246.57 62.8977C247.536 62.9575 248.51 63.0695 249.491 63.2338C250.488 63.3832 251.402 63.682 252.235 64.1301C253.067 64.5783 253.736 65.243 254.242 66.1244C254.747 67.0057 255 68.2082 255 69.7319C255 72.2265 254.19 74.0938 252.569 75.3336C250.963 76.5735 248.54 77.1934 245.299 77.1934Z" fill="white"/>
</g>
<defs>
<clipPath id="clip0_2499_3756">
<rect width="255" height="88" fill="white"/>
</clipPath>
</defs>
</svg>
