<svg width="255" height="88" viewBox="0 0 255 88" fill="none" xmlns="http://www.w3.org/2000/svg">
<g clip-path="url(#clip0_2435_3052)">
<path d="M44.0382 5.77133e-09C32.3587 6.12475e-06 21.1576 4.63558 12.8989 12.887C4.64015 21.1384 0.000297642 32.3297 4.14403e-09 43.9991C-7.93302e-05 49.7774 1.13894 55.4991 3.35203 60.8375C5.56512 66.1759 8.80894 71.0265 12.8983 75.1124C16.9876 79.1983 21.8424 82.4394 27.1853 84.6506C32.5283 86.8619 38.2549 88 44.0382 88C49.8214 88 55.548 86.8619 60.891 84.6506C66.234 82.4394 71.0887 79.1983 75.1781 75.1124C79.2674 71.0265 82.5112 66.1759 84.7243 60.8375C86.9374 55.4991 88.0764 49.7774 88.0763 43.9991C88.0761 43.2184 88.055 42.4377 88.0132 41.658C88.0538 41.462 88.0763 41.2599 88.0763 41.0513V2.94777C88.0763 1.31401 86.7685 5.77133e-09 85.1424 5.77133e-09H46.9738C46.7669 5.77133e-09 46.5645 0.0198972 46.37 0.0616846C45.5934 0.0205551 44.8158 -1.25786e-05 44.0382 5.77133e-09Z" fill="#008BCA"/>
<path d="M66.669 44.0002C66.669 48.5697 34.8013 67.0553 30.8626 64.7706C26.9239 62.4858 26.9239 25.5146 30.8626 23.2299C34.8013 20.9451 66.669 39.4307 66.669 44.0002Z" fill="white"/>
<path d="M103.149 10.8066V43.1925H98.6265V10.8066H103.149Z" fill="#008BCA"/>
<path d="M108.1 43.1924V20.0724H112.623V43.1924H108.1ZM122.067 43.1924V29.1823C122.067 27.5489 121.646 26.2867 120.803 25.3958C119.976 24.5048 118.793 24.0594 117.256 24.0594C115.778 24.0594 114.633 24.4529 113.82 25.2399C113.022 26.0269 112.623 27.1331 112.623 28.5586L112.157 24.1039C112.867 22.7081 113.791 21.6315 114.929 20.8742C116.081 20.1169 117.352 19.7383 118.742 19.7383C121.239 19.7383 123.168 20.5624 124.528 22.2107C125.902 23.8441 126.589 26.1605 126.589 29.16V43.1924H122.067Z" fill="#008BCA"/>
<path d="M131.541 43.1925V16.9319C131.541 14.8976 132.006 13.3681 132.938 12.3435C133.869 11.3189 135.317 10.8066 137.283 10.8066H140.608V15.1277H137.371C136.913 15.1277 136.581 15.3059 136.374 15.6623C136.167 16.0038 136.063 16.4122 136.063 16.8873V43.1925H131.541ZM129.102 23.9481V20.0725H140.608V23.9481H129.102Z" fill="#008BCA"/>
<path d="M147.2 10.8066V37.2231C147.2 37.7726 147.318 38.2032 147.555 38.515C147.806 38.8269 148.153 38.9828 148.597 38.9828H150.725V43.3038H148.065C146.365 43.3038 145.042 42.7693 144.097 41.7002C143.151 40.631 142.678 39.1238 142.678 37.1786V10.8066H147.2Z" fill="#008BCA"/>
<path d="M166.894 43.1923V20.0723H171.394V43.1923H166.894ZM157.539 20.0723V34.1269C157.539 35.7455 157.945 37.0002 158.758 37.8912C159.586 38.7673 160.746 39.2053 162.239 39.2053C163.731 39.2053 164.877 38.8118 165.675 38.0248C166.488 37.223 166.894 36.1019 166.894 34.6615L167.204 39.4948C166.791 40.5343 166.066 41.4698 165.032 42.3013C163.997 43.118 162.645 43.5264 160.975 43.5264C158.433 43.5264 156.467 42.7097 155.078 41.0763C153.703 39.428 153.016 37.1116 153.016 34.1269V20.0723H157.539Z" fill="#008BCA"/>
<path d="M185.103 43.5265C181.896 43.5265 179.413 42.6281 177.654 40.8314C175.895 39.0347 175.016 36.4806 175.016 33.1693V30.5633C175.016 27.1183 175.858 24.4529 177.543 22.567C179.243 20.6812 181.63 19.7383 184.704 19.7383C187.6 19.7383 189.839 20.8074 191.421 22.9457C193.017 25.084 193.815 28.0835 193.815 31.9442V33.4588H178.297V29.806H189.514C189.381 27.935 188.894 26.4723 188.051 25.4181C187.223 24.3638 186.108 23.8366 184.704 23.8366C183.004 23.8366 181.681 24.4009 180.735 25.5294C179.789 26.658 179.317 28.2542 179.317 30.3183V33.2584C179.317 35.1739 179.819 36.644 180.824 37.6686C181.844 38.6931 183.27 39.2054 185.103 39.2054C186.019 39.2054 186.928 39.0198 187.829 38.6486C188.731 38.2774 189.536 37.7576 190.246 37.0894L193.217 40.0741C192.079 41.1729 190.8 42.0268 189.381 42.6356C187.962 43.2295 186.536 43.5265 185.103 43.5265Z" fill="#008BCA"/>
<path d="M108.327 77.1939C106.751 77.1939 105.265 77.0445 103.867 76.7457C102.484 76.4469 101.183 75.9988 99.9642 75.4013C98.7599 74.8038 97.63 74.0569 96.5743 73.1606L99.4067 69.6651C100.641 70.7406 102.001 71.5473 103.488 72.0851C104.975 72.6228 106.588 72.8917 108.327 72.8917C110.677 72.8917 112.498 72.451 113.791 71.5697C115.085 70.6883 115.732 69.456 115.732 67.8725V67.8502C115.732 66.6103 115.405 65.6618 114.75 65.0045C114.096 64.3472 113.234 63.8617 112.163 63.548C111.108 63.2194 109.948 62.9505 108.684 62.7414C107.465 62.5322 106.231 62.2857 104.982 62.0019C103.748 61.7181 102.611 61.2774 101.57 60.6799C100.529 60.0675 99.6892 59.1936 99.0499 58.0583C98.4254 56.923 98.1132 55.4068 98.1132 53.5097V53.4873C98.1132 50.4549 99.1168 48.1096 101.124 46.4515C103.131 44.7784 105.963 43.9419 109.621 43.9419C111.36 43.9419 113.063 44.2257 114.728 44.7934C116.393 45.3461 118.014 46.1975 119.59 47.3477L117.003 50.9777C115.769 50.0515 114.535 49.3644 113.301 48.9163C112.082 48.4681 110.855 48.244 109.621 48.244C107.406 48.244 105.681 48.6922 104.447 49.5885C103.228 50.4698 102.618 51.7246 102.618 53.3528V53.3752C102.618 54.6001 102.975 55.5338 103.689 56.1761C104.402 56.8184 105.332 57.2964 106.476 57.6101C107.636 57.9089 108.878 58.1927 110.201 58.4616C111.39 58.7006 112.58 58.9919 113.769 59.3355C114.958 59.6641 116.036 60.1496 117.003 60.7919C117.984 61.4193 118.765 62.2857 119.344 63.3912C119.939 64.4966 120.237 65.9381 120.237 67.7157V67.7606C120.237 70.7631 119.196 73.086 117.114 74.7292C115.033 76.3724 112.104 77.1939 108.327 77.1939Z" fill="#008BCA"/>
<path d="M131.484 77.1939C128.451 77.1939 126.102 76.3126 124.437 74.5499C122.772 72.7723 121.939 70.2776 121.939 67.0659V63.2791C121.939 60.0973 122.772 57.6326 124.437 55.8848C126.102 54.1371 128.451 53.2632 131.484 53.2632C134.517 53.2632 136.866 54.1371 138.532 55.8848C140.197 57.6326 141.029 60.0973 141.029 63.2791V67.1332C141.029 70.3299 140.197 72.8096 138.532 74.5723C136.866 76.32 134.517 77.1939 131.484 77.1939ZM131.484 72.847C133.075 72.847 134.302 72.3465 135.164 71.3457C136.041 70.3448 136.48 68.9407 136.48 67.1332V63.2791C136.48 61.4716 136.041 60.0749 135.164 59.089C134.302 58.1031 133.075 57.6102 131.484 57.6102C129.908 57.6102 128.682 58.1031 127.804 59.089C126.927 60.0749 126.489 61.4716 126.489 63.2791V67.1332C126.489 68.9407 126.927 70.3448 127.804 71.3457C128.682 72.3465 129.908 72.847 131.484 72.847Z" fill="#008BCA"/>
<path d="M148.397 44.2778V70.8526C148.397 71.4053 148.515 71.8385 148.753 72.1522C149.006 72.4659 149.356 72.6227 149.802 72.6227H151.943V76.9697H149.266C147.557 76.9697 146.226 76.4319 145.274 75.3564C144.323 74.2809 143.847 72.7647 143.847 70.8078V44.2778H148.397Z" fill="#008BCA"/>
<path d="M167.16 76.8576V53.5991H171.687V76.8576H167.16ZM157.749 53.5991V67.738C157.749 69.3662 158.157 70.6285 158.975 71.5247C159.808 72.4061 160.975 72.8468 162.477 72.8468C163.978 72.8468 165.13 72.4509 165.933 71.6592C166.751 70.8525 167.16 69.7247 167.16 68.2757L167.472 73.1381C167.056 74.1837 166.327 75.1248 165.287 75.9614C164.246 76.7829 162.885 77.1937 161.205 77.1937C158.648 77.1937 156.671 76.3721 155.273 74.729C153.89 73.0708 153.199 70.7405 153.199 67.738V53.5991H157.749Z" fill="#008BCA"/>
<path d="M180.972 76.97C179.069 76.97 177.687 76.4397 176.824 75.3791C175.977 74.3185 175.553 72.7948 175.553 70.8081V46.8325H180.103V70.8529C180.103 71.4056 180.214 71.8388 180.437 72.1525C180.66 72.4662 180.987 72.623 181.418 72.623H183.604V76.97H180.972ZM173.167 57.7223V53.5994H183.604V57.7223H173.167Z" fill="#008BCA"/>
<path d="M186.199 48.8489V44.2778H190.748V48.8489H186.199ZM186.199 76.8577V53.5992H190.748V76.8577H186.199Z" fill="#008BCA"/>
<path d="M202.888 77.1939C199.855 77.1939 197.506 76.3126 195.841 74.5499C194.175 72.7723 193.343 70.2776 193.343 67.0659V63.2791C193.343 60.0973 194.175 57.6326 195.841 55.8848C197.506 54.1371 199.855 53.2632 202.888 53.2632C205.921 53.2632 208.27 54.1371 209.935 55.8848C211.6 57.6326 212.433 60.0973 212.433 63.2791V67.1332C212.433 70.3299 211.6 72.8096 209.935 74.5723C208.27 76.32 205.921 77.1939 202.888 77.1939ZM202.888 72.847C204.479 72.847 205.705 72.3465 206.568 71.3457C207.445 70.3448 207.883 68.9407 207.883 67.1332V63.2791C207.883 61.4716 207.445 60.0749 206.568 59.089C205.705 58.1031 204.479 57.6102 202.888 57.6102C201.312 57.6102 200.085 58.1031 199.208 59.089C198.331 60.0749 197.892 61.4716 197.892 63.2791V67.1332C197.892 68.9407 198.331 70.3448 199.208 71.3457C200.085 72.3465 201.312 72.847 202.888 72.847Z" fill="#008BCA"/>
<path d="M215.251 76.8578V53.5993H219.8V76.8578H215.251ZM229.301 76.8578V62.7638C229.301 61.1206 228.877 59.8509 228.03 58.9546C227.197 58.0583 226.008 57.6102 224.461 57.6102C222.974 57.6102 221.822 58.006 221.004 58.7977C220.202 59.5895 219.8 60.7023 219.8 62.1364L219.332 57.655C220.046 56.2508 220.975 55.1678 222.12 54.4059C223.279 53.6441 224.558 53.2632 225.955 53.2632C228.468 53.2632 230.408 54.0923 231.776 55.7504C233.159 57.3936 233.85 59.7239 233.85 62.7414V76.8578H229.301Z" fill="#008BCA"/>
<path d="M245.299 77.1939C243.247 77.1939 241.381 76.8952 239.701 76.2976C238.036 75.6852 236.542 74.7739 235.218 73.564L237.917 70.2253C239.181 71.1814 240.422 71.8984 241.641 72.3764C242.875 72.8544 244.094 73.0934 245.299 73.0934C247.098 73.0934 248.443 72.8171 249.335 72.2644C250.242 71.6967 250.696 70.8527 250.696 69.7324C250.696 68.866 250.391 68.2535 249.781 67.895C249.187 67.5365 248.399 67.3049 247.417 67.2004C246.451 67.0809 245.41 66.9838 244.295 66.9091C243.358 66.8344 242.429 66.7224 241.507 66.573C240.586 66.4087 239.746 66.1248 238.987 65.7215C238.229 65.3032 237.619 64.6908 237.159 63.8841C236.713 63.0775 236.49 61.9945 236.49 60.6351C236.49 58.1703 237.24 56.3255 238.742 55.1006C240.244 53.8756 242.481 53.2632 245.455 53.2632C247.269 53.2632 248.956 53.5097 250.517 54.0026C252.078 54.4956 253.543 55.25 254.911 56.2657L252.168 59.6044C251.008 58.8575 249.863 58.2973 248.733 57.9239C247.618 57.5504 246.525 57.3637 245.455 57.3637C243.909 57.3637 242.749 57.6326 241.976 58.1703C241.203 58.6932 240.816 59.4849 240.816 60.5455C240.816 61.2476 241.084 61.7555 241.619 62.0692C242.154 62.3679 242.86 62.5621 243.738 62.6518C244.615 62.7414 245.559 62.8235 246.57 62.8982C247.536 62.958 248.51 63.07 249.491 63.2343C250.488 63.3837 251.402 63.6825 252.235 64.1306C253.067 64.5788 253.736 65.2435 254.242 66.1248C254.747 67.0062 255 68.2087 255 69.7324C255 72.227 254.19 74.0943 252.569 75.3341C250.963 76.574 248.54 77.1939 245.299 77.1939Z" fill="#008BCA"/>
</g>
<defs>
<clipPath id="clip0_2435_3052">
<rect width="255" height="88" fill="white"/>
</clipPath>
</defs>
</svg>
